<svg xmlns="http://www.w3.org/2000/svg" viewBox="0 0 191.47 153.56"><defs><style>.cls-1{fill:#1f201e;}.cls-2{fill:#aac2d5;}.cls-3{fill:#fefefe;}.cls-4{fill:#dadada;}.cls-5{fill:#93a7b8;}.cls-6{fill:#abc2d5;}.cls-7{fill:#94a8b8;}.cls-8{fill:#95a9b9;}.cls-9{fill:#0e0b06;}.cls-10{fill:#b4cee2;}.cls-11{fill:#bad5ea;}.cls-12{fill:#ccdae5;}.cls-13{fill:#1d1d1b;}.cls-14{fill:#1f1f1d;}.cls-15{fill:#cbbcab;}.cls-16{fill:#948a7e;}.cls-17{fill:#595755;}.cls-18{fill:#fbfbfb;}.cls-19{fill:#454342;}.cls-20{fill:#b8b8b8;}.cls-21{fill:#f9f9f9;}.cls-22{fill:#edf6fa;}.cls-23{fill:#ebf3f8;}.cls-24{fill:#676a6c;}.cls-25{fill:#c4c4c4;}.cls-26,.cls-27{fill:#e0bb79;stroke:#000;stroke-miterlimit:10;stroke-width:0.46px;}.cls-27{stroke-linecap:round;}</style></defs><title>Element 1</title><g id="Ebene_2" data-name="Ebene 2"><g id="Ebene_1-2" data-name="Ebene 1"><path class="cls-1" d="M68.28,84.59a.67.67,0,0,1-.37-.55c-.75-3.79-6.59-34.1-7.32-37.9-.78-4-1.43-8.12-1.82-12.22a3.52,3.52,0,0,0-.63-1.72,10.42,10.42,0,0,1-1.53-9,8.22,8.22,0,0,1,1.94-3.41l.13-.14c-.32-.24-.66-.44-1-.7A4.57,4.57,0,0,1,56,15.89a2.5,2.5,0,0,1,2-2.8,3.74,3.74,0,0,1,3.21.75c.42.32.8.69,1.2,1,.49-.38,1-.8,1.5-1.17a23.53,23.53,0,0,1,6.1-3.05,38.41,38.41,0,0,1,5.22-1.42,28.5,28.5,0,0,1,11.16,0c1,.21,1.92.51,2.91.78l.33-.63a4.94,4.94,0,0,1,1.79-2.06,3.59,3.59,0,0,1,2-.53A2.68,2.68,0,0,1,96,9.39a6.65,6.65,0,0,1-.7,3.08l-.14.3.56.28a8.89,8.89,0,0,1,4.13,4.74,10.79,10.79,0,0,1,0,8.07.55.55,0,0,0,0,.32c.91,3.3,1.59,6.64,2.28,10,.64,3.11,1.29,6.22,1.89,9.34.26,1.37,5.47,29.28,5.67,30.66a.56.56,0,0,1-.19.55l-.26.05-.34-.39c0-.09,0-.18,0-.27-.23-2.17-5.7-30.83-6.11-33l-.36-1.85s0-.07,0-.1c-.1-.52-.19-1-.3-1.56,0,0-.06-.07-.1-.1l-.08-.35-.73-3.34-.47-2.29,0-.22-.12-.44-.2-1.05L100,30.17s0-.06-.06-.08l-.12-.61,0-.09,0-.09-.06-.13-.11-.57-.1-.26-.1-.52-.08-.17-.08-.39,0,0-.06.06-.43.66-.14.17A5.45,5.45,0,0,1,96.26,30a11.09,11.09,0,0,1-6.36.7A9.49,9.49,0,0,1,82,23.07c-.09-.44-.14-.89-.21-1.33a21.7,21.7,0,0,1,.13-2.3,8.28,8.28,0,0,1,3.71-5.87A9.9,9.9,0,0,1,90.86,12l.71,0a.73.73,0,0,0-.23-.17,19.26,19.26,0,0,0-6.76-2.11c-1-.12-2-.15-3-.22h-.23l-.13,0s-.05,0-.08,0l-3,.16-.35.06h-.19l-.44.08H77l-.13,0-.75.13H76l-.35.06-.58.11-.35.07-.26.09-.79.15h0l-.09,0-.22.08-.48.1-.13.07-.08,0-.13.07-.22.05-.17.07-.22,0-.13.07-.22.05-.17.07-.21.05-.17.07-.17,0-.22.07-.17,0-.22.07-.17,0-.17.06-.13,0-.17.07-.08,0-.13.06-.17,0-.08.06-.17,0-.17.07c-.55.26-1.1.5-1.64.77a15.86,15.86,0,0,0-4.48,3.15c-.52.55-.94,1.18-1.41,1.77a1.06,1.06,0,0,0-.09.18l.21-.09a11.69,11.69,0,0,1,4.25-1.12,8.22,8.22,0,0,1,7.08,3.05,9.61,9.61,0,0,1,2.25,6.16,9.26,9.26,0,0,1-3.2,7.37,11,11,0,0,1-4.29,2.32,10.73,10.73,0,0,1-3.15.45,6.24,6.24,0,0,1-3.87-1.48l-.8-.66c0,.11,0,.19,0,.27.18,1.44.34,2.89.54,4.33.16,1.16.35,2.31.52,3.47a.51.51,0,0,0,0,.19c.09.49.18,1,.28,1.48a.65.65,0,0,0,.08.15l.14.8c-.12.08-.07.14,0,.19l0,.12a.51.51,0,0,0,0,.19q.35,1.86.71,3.71c0,.06.07.11.11.16l.28,1.41s0,.07,0,.1q.22,1.19.46,2.38s.07.08.1.12L63,54v0l0,.08s5,26.62,5,26.67q.14.77.3,1.54s.07.08.1.12L68.74,84a.52.52,0,0,1-.2.49ZM91.44,8.36l-.08.07h0l-.08.06a6.82,6.82,0,0,0-1.18,1.86l1.85.89c.06-.14.13-.27.19-.41s.11-.31.16-.46c.09-.44.17-.87.27-1.31a.4.4,0,0,1,.18-.24c.06,0,.19,0,.25.08a.31.31,0,0,1,.05.22c0,.29-.05.57-.08.86h0v0l-.22.73L94,10.49v0l.51,0h0l.07,0,0,.09v.14L93.32,11a1,1,0,0,0-.22.12H93l-.15.1-.42.27a3.76,3.76,0,0,0,2,.93l.23-.54a5.34,5.34,0,0,0,.54-2,3.42,3.42,0,0,0-.09-1,1.78,1.78,0,0,0-1.79-1.35,2.78,2.78,0,0,0-1.72.62l-.09.07-.08.08Zm-32.21,8,.84.27-.36-.84a1.26,1.26,0,0,0,0-.15.27.27,0,0,1,.06-.36c.13-.1.25,0,.35,0a7.08,7.08,0,0,0,.69,1.51l1.12-1.37-.44-.4a4.46,4.46,0,0,0-1.33-1,2.73,2.73,0,0,0-2-.16,1.47,1.47,0,0,0-1.06.83,2.09,2.09,0,0,0-.11,1.66,4.23,4.23,0,0,0,2.13,2.53c.28.15.43.13.6-.14.27-.45.51-.92.78-1.41a6,6,0,0,0-.64-.3c-.4-.14-.82-.25-1.23-.36-.16,0-.27-.12-.27-.3a.29.29,0,0,1,.42-.17Zm6.05,1.2h-.22a10.77,10.77,0,0,0-3,.83,7.76,7.76,0,0,0-4.68,5.26A9.28,9.28,0,0,0,57.49,29a9.83,9.83,0,0,0,3.37,4.88,5.48,5.48,0,0,0,3.45,1.32,9,9,0,0,0,2.79-.41c.69-.22,1.34-.53,2-.8l.15-.09a8.48,8.48,0,0,0,4-4.22,8.91,8.91,0,0,0,.27-6.57,8.22,8.22,0,0,0-3.09-4.27A7.38,7.38,0,0,0,65.28,17.55ZM90,12.93c-.53.09-1.07.15-1.59.29a7.42,7.42,0,0,0-5.1,4.31A8.73,8.73,0,0,0,83.12,24a8.38,8.38,0,0,0,4.44,5.14,10.21,10.21,0,0,0,7.8.37,4.54,4.54,0,0,0,1.55-.82,7.62,7.62,0,0,0,.88-.88,9.68,9.68,0,0,0,1-10.37A7.6,7.6,0,0,0,93.15,13,10,10,0,0,0,90,12.93Z"/><path class="cls-2" d="M108.87,76.38a2.11,2.11,0,0,1-.29.1L69.06,84a2.66,2.66,0,0,1-.31,0l-.33-1.59-.2-1.1a.36.36,0,0,0,0-.12c-.12-.64-5.3-27.8-5.43-28.44,0,0-.07-.08-.1-.12s0-.11,0-.17l-.44-2.12L61.93,49l-.77-4.06,0-.12,0-.19L61,43.8,60.65,42c-.17-1.15-.36-2.31-.52-3.47-.19-1.44-.36-2.88-.54-4.33,0-.08,0-.16,0-.27l.8.66a6.24,6.24,0,0,0,3.87,1.48,10.73,10.73,0,0,0,3.15-.45,11,11,0,0,0,4.29-2.32,9.26,9.26,0,0,0,3.2-7.37,9.61,9.61,0,0,0-2.25-6.16,8.22,8.22,0,0,0-7.08-3.05,11.69,11.69,0,0,0-4.25,1.12l-.21.09a1.06,1.06,0,0,1,.09-.18c.47-.59.89-1.23,1.41-1.77a15.86,15.86,0,0,1,4.48-3.15c.54-.27,1.1-.52,1.64-.77l.17-.07.17,0,.08-.06.17,0,.13-.06.08,0c.09.05.16.06.17-.07l.13,0,.17-.06.17,0c.1,0,.18.07.22-.07l.17,0c.1,0,.18.07.22-.07l.17,0c.09.06.16.07.17-.07l.21-.05c.09.06.16.07.17-.07l.22-.05.13-.07.22,0c.09.05.16.06.17-.07l.22-.05.13-.07.08,0,.13-.07.48-.1c.1,0,.19.07.22-.08l.09,0h0l.79-.15c.11.05.22.07.26-.09l.35-.07.58-.11L76,10c.06.12.12.08.19,0l.75-.13.13,0h.23l.44-.08h.19l.35-.06a.87.87,0,0,0,.23.05l2.22-.11.6-.06.13,0c.08.13.15.08.23,0,1,.07,2,.1,3,.22a19.26,19.26,0,0,1,6.76,2.11.73.73,0,0,1,.23.17l-.71,0a9.9,9.9,0,0,0-5.21,1.53,8.28,8.28,0,0,0-3.71,5.87,21.7,21.7,0,0,0-.13,2.3s-.06.08-.06.13a3.62,3.62,0,0,0,0,.49c.06.44.12.89.2,1.33s.2.8.25,1.2a5.6,5.6,0,0,0,.36,1.56,7.65,7.65,0,0,0,3.73,3.9,11.53,11.53,0,0,0,4.22,1.2,10.47,10.47,0,0,0,4-.32,8.53,8.53,0,0,0,2-.84,6.15,6.15,0,0,0,2.16-2.11,1.3,1.3,0,0,0,.1-.35l.43-.66.09,0,.08.39c-.06.09-.06.17.08.17l.1.52c-.08.13,0,.2.1.26l.11.57.06.13,0,.09,0,.09.12.61a.42.42,0,0,0,0,.14c.08.37.16.74.26,1.11a4.86,4.86,0,0,0,.19.51l.2,1.05c0,.17-.06.33.12.44l0,.22a.38.38,0,0,0,0,.13q.19,1,.39,2s.07.08.1.12l.73,3.34.08.35.37,1.76.36,1.85c.41,2.14,5.88,30.8,6.11,33C108.87,76.2,108.87,76.29,108.87,76.38ZM75.36,32.71a3.68,3.68,0,0,0,.3.43,1.54,1.54,0,0,0,1.06.63,1.34,1.34,0,0,1,1.08.53l.08-.09a2.14,2.14,0,0,0,1,1.2c0,.05.09.13.15.16a2.35,2.35,0,0,0,1.14.14,2.71,2.71,0,0,0,1.62-.61c.06-.05.08-.16.12-.24a7,7,0,0,0,.38-.82,3.3,3.3,0,0,0,.08-.68s.07,0,.09-.06a.72.72,0,0,0,.09-.23,1.18,1.18,0,0,1,.71-.93,1.16,1.16,0,0,0,.7-1.2,2,2,0,0,0,.08-1.59,3.5,3.5,0,0,0-2.41-2.16l-.21-.06A1.17,1.17,0,0,0,80.61,26a2.18,2.18,0,0,0-.45-.13,4.73,4.73,0,0,0-2.54.27,3.5,3.5,0,0,0-1.28.81A1.15,1.15,0,0,0,76,28.28a.24.24,0,0,1-.07.32C75,29.52,74.42,31.56,75.36,32.71Zm22.1,45.61h0l2.27-.43c.17,0,.22-.09.17-.25-.16-.46-.28-.94-.48-1.39C99,75.34,93.51,47.93,93.09,47c-.29-.63-.52-1.29-.83-1.9A11.91,11.91,0,0,0,89.84,42a8.07,8.07,0,0,0-2.54-1.72,10.54,10.54,0,0,0-5.5-.59,12.77,12.77,0,0,0-2.43.59,12.36,12.36,0,0,0-3.26,1.65,12,12,0,0,0-3.37,3.73,12.67,12.67,0,0,0-1.44,3.72c-.45,2.08,4.63,30.7,5,32.79,0,.22.09.28.33.23l8.31-1.64,10.45-2Z"/><path class="cls-3" d="M90,12.93a10,10,0,0,1,3.12.07,7.6,7.6,0,0,1,5.63,4.4,9.68,9.68,0,0,1-1,10.37,7.62,7.62,0,0,1-.88.88s-.07,0-.1,0c-.37.11-.74.22-1.11.35a7.94,7.94,0,0,1-2.27.46A8.15,8.15,0,0,1,90,28.82a19.91,19.91,0,0,1-2.21-1.08A5.71,5.71,0,0,1,86,26.38,15.3,15.3,0,0,1,85.09,25,7.6,7.6,0,0,1,84,21.1,8.81,8.81,0,0,1,84.55,18a6.92,6.92,0,0,1,2.39-3.32,11.22,11.22,0,0,1,2.74-1.51A2.48,2.48,0,0,0,90,12.93Zm4.47,6.62a1.9,1.9,0,0,0,1.28-.77A2.22,2.22,0,0,0,96.13,17a1.65,1.65,0,0,0-1.86-1.35,2.51,2.51,0,0,0-2,1.44,1.64,1.64,0,0,0-.07,1.39A1.91,1.91,0,0,0,94.5,19.55Z"/><path class="cls-3" d="M65.28,17.55a7.38,7.38,0,0,1,5.21,1.32,8.22,8.22,0,0,1,3.09,4.27,8.91,8.91,0,0,1-.27,6.57,8.48,8.48,0,0,1-4,4.22l-.15.09a1.1,1.1,0,0,0-.28,0,7.15,7.15,0,0,1-2.65.11,10.86,10.86,0,0,1-4.46-1.77,6,6,0,0,1-2-2,8.62,8.62,0,0,1-1.13-2.62,8.45,8.45,0,0,1-.2-1.82,8.3,8.3,0,0,1,1.64-5.13,6.73,6.73,0,0,1,2.3-1.93c.69-.35,1.42-.61,2.13-.93C64.77,17.83,65,17.68,65.28,17.55Zm-2.2,9a5.74,5.74,0,0,0-.21-.59A1.59,1.59,0,0,0,61,25a2.48,2.48,0,0,0-1.86,1.47,2,2,0,0,0,1.38,2.68A1.8,1.8,0,0,0,63,28,3.07,3.07,0,0,0,63.09,26.53Z"/><path class="cls-4" d="M65.28,17.55c-.26.13-.51.28-.78.4-.71.31-1.44.58-2.13.93a6.73,6.73,0,0,0-2.3,1.93,8.3,8.3,0,0,0-1.64,5.13,8.45,8.45,0,0,0,.2,1.82,8.62,8.62,0,0,0,1.13,2.62,6,6,0,0,0,2,2,10.86,10.86,0,0,0,4.46,1.77A7.15,7.15,0,0,0,68.84,34a1.1,1.1,0,0,1,.28,0c-.67.27-1.33.58-2,.8a9,9,0,0,1-2.79.41,5.48,5.48,0,0,1-3.45-1.32A9.83,9.83,0,0,1,57.49,29a9.28,9.28,0,0,1-.15-5.38A7.76,7.76,0,0,1,62,18.39a10.77,10.77,0,0,1,3-.83Z"/><path class="cls-4" d="M90,12.93a2.48,2.48,0,0,1-.36.21,11.22,11.22,0,0,0-2.74,1.51A6.92,6.92,0,0,0,84.55,18,8.81,8.81,0,0,0,84,21.1,7.6,7.6,0,0,0,85.09,25,15.3,15.3,0,0,0,86,26.38a5.71,5.71,0,0,0,1.72,1.35A19.91,19.91,0,0,0,90,28.82a8.15,8.15,0,0,0,3.48.63A7.94,7.94,0,0,0,95.71,29c.37-.13.74-.24,1.11-.35,0,0,.07,0,.1,0a4.54,4.54,0,0,1-1.55.82,10.21,10.21,0,0,1-7.8-.37A8.38,8.38,0,0,1,83.12,24a8.73,8.73,0,0,1,.23-6.45,7.42,7.42,0,0,1,5.1-4.31C89,13.07,89.5,13,90,12.93Z"/><path class="cls-5" d="M98.74,27.93a1.3,1.3,0,0,1-.1.35,6.15,6.15,0,0,1-2.16,2.11,8.53,8.53,0,0,1-2,.84,10.47,10.47,0,0,1-4,.32,11.53,11.53,0,0,1-4.22-1.2,7.65,7.65,0,0,1-3.73-3.9,5.6,5.6,0,0,1-.36-1.56c0-.41-.18-.8-.25-1.2s-.14-.88-.2-1.33a3.62,3.62,0,0,1,0-.49s0-.08.06-.13c.07.44.12.89.21,1.33a9.49,9.49,0,0,0,7.88,7.64,11.09,11.09,0,0,0,6.36-.7A5.45,5.45,0,0,0,98.6,28.1Z"/><path class="cls-2" d="M94.58,10.61l0-.09-.07,0h0l-.51,0v0l.26-.46A1.42,1.42,0,0,1,93,10c0-.29.06-.57.08-.86A.31.31,0,0,0,93,8.89c-.06-.06-.19-.11-.25-.08a.4.4,0,0,0-.18.24c-.1.43-.18.87-.27,1.31-.06,0-.12-.11-.18-.1a.59.59,0,0,1-.68-.51,2.43,2.43,0,0,1,.16-1.29,1,1,0,0,0,0-.25,2.78,2.78,0,0,1,1.72-.62,1.78,1.78,0,0,1,1.79,1.35,3.42,3.42,0,0,1,.09,1,5.34,5.34,0,0,1-.54,2h-.11a.7.7,0,0,1-.84-.67l0-.17c.22,0,.44-.07.65-.13s.15-.11.23-.17v-.14Z"/><path class="cls-6" d="M57,14.74a1.47,1.47,0,0,1,1.06-.83,2.73,2.73,0,0,1,2,.16,4.46,4.46,0,0,1,1.33,1c0,.08-.06.15-.08.23-.13.44-.38.53-.76.26a4.37,4.37,0,0,1-.43-.41l-.1.19c-.11-.09-.22-.15-.35,0a.27.27,0,0,0-.06.36,1.25,1.25,0,0,1,0,.15,1.24,1.24,0,0,0-.77.23l.29.35-.52-.13a.29.29,0,0,0-.42.17,1.7,1.7,0,0,1-1.06-1.15C57.18,15.08,57.11,14.91,57,14.74Z"/><path class="cls-7" d="M57,14.74c.07.17.14.34.2.51A1.7,1.7,0,0,0,58.3,16.4c0,.18.11.26.27.3.41.11.82.23,1.23.36a6,6,0,0,1,.64.3c-.27.49-.5,1-.78,1.41-.17.27-.32.29-.6.14a4.23,4.23,0,0,1-2.13-2.53A2.09,2.09,0,0,1,57,14.74Z"/><path class="cls-8" d="M91.61,8.21a1,1,0,0,1,0,.25,2.43,2.43,0,0,0-.16,1.29.59.59,0,0,0,.68.51c.06,0,.12.07.18.1s-.1.31-.16.46-.12.27-.19.41l-1.85-.89a6.82,6.82,0,0,1,1.18-1.86l.08-.06h0l.08-.07h0l.08-.08Z"/><path class="cls-7" d="M93.7,11l0,.17a.7.7,0,0,0,.84.67h.11l-.23.54a3.76,3.76,0,0,1-2-.93l.42-.27.15-.1h.09Z"/><path class="cls-7" d="M60.09,15.32l.1-.19a4.37,4.37,0,0,0,.43.41c.38.27.63.18.76-.26,0-.08.06-.15.08-.23l.44.4-1.12,1.37A7.08,7.08,0,0,1,60.09,15.32Z"/><path class="cls-5" d="M93,10a1.42,1.42,0,0,0,1.25,0l-.26.46-1.23.24.22-.73,0,0v0Z"/><path class="cls-5" d="M59.23,16.35,58.94,16a1.24,1.24,0,0,1,.77-.23l.36.84Z"/><path class="cls-9" d="M61.16,44.91,61.93,49c0-.05-.1-.1-.11-.16q-.36-1.85-.71-3.71A.51.51,0,0,1,61.16,44.91Z"/><path class="cls-10" d="M81.28,9.53l-.6.06-2.22.11a.87.87,0,0,1-.23-.05l3-.16S81.26,9.51,81.28,9.53Z"/><path class="cls-9" d="M62.21,50.38l.44,2.12c0,.06,0,.11,0,.17l0,.31s-.1-.07-.1-.12q-.23-1.19-.46-2.38S62.2,50.42,62.21,50.38Z"/><path class="cls-11" d="M62.75,53l0-.31s.09.07.1.12c.13.64,5.31,27.8,5.43,28.44a.36.36,0,0,1,0,.12c-.06-.23-5.17-27-5.23-27.23L63,54v0Z"/><path class="cls-9" d="M63,54.12c.06.23,5.17,27,5.23,27.23l.2,1.1s-.09-.08-.1-.12q-.16-.77-.3-1.54S63,54.17,63,54.12Z"/><path class="cls-11" d="M101.22,35.84s-.09-.07-.1-.12q-.2-1-.39-2a.38.38,0,0,1,0-.13Z"/><path class="cls-10" d="M100.38,31.84a4.86,4.86,0,0,1-.19-.51c-.1-.37-.18-.74-.26-1.11a.42.42,0,0,1,0-.14s.05.05.06.08Z"/><path class="cls-9" d="M60.65,42,61,43.8a.65.65,0,0,1-.08-.15c-.1-.49-.19-1-.28-1.48A.51.51,0,0,1,60.65,42Z"/><path class="cls-9" d="M102.4,41.29,102,39.53s.09.06.1.1c.1.52.2,1,.3,1.56C102.43,41.22,102.41,41.26,102.4,41.29Z"/><path class="cls-9" d="M93.7,11l-.59.1a1,1,0,0,1,.22-.12l1.25-.28c-.08.06-.15.14-.23.17S93.91,11,93.7,11Z"/><path class="cls-10" d="M100.7,33.33c-.18-.11-.15-.27-.12-.44Z"/><path class="cls-9" d="M94,10.51l.51,0Z"/><path class="cls-10" d="M75.61,10l-.58.11Z"/><path class="cls-10" d="M74.68,10.2c0,.16-.15.14-.26.09Z"/><path class="cls-10" d="M73.49,10.47c0,.15-.12.13-.22.08Z"/><path class="cls-10" d="M70.77,11.32c0,.14-.12.12-.22.07Z"/><path class="cls-10" d="M99.62,28.6c-.1-.06-.18-.13-.1-.26Z"/><path class="cls-10" d="M70.38,11.44c0,.14-.12.12-.22.07Z"/><path class="cls-10" d="M81.64,9.5c-.08.08-.15.13-.23,0Z"/><path class="cls-10" d="M76.15,10c-.06.08-.13.12-.19,0Z"/><path class="cls-10" d="M72.24,10.85c0,.13-.08.12-.17.07Z"/><path class="cls-10" d="M70,11.56l-.17.06Z"/><path class="cls-10" d="M71.51,11.08c0,.13-.08.13-.17.07Z"/><path class="cls-10" d="M71.12,11.2c0,.13-.09.13-.17.07Z"/><path class="cls-10" d="M99.42,27.81c-.14,0-.13-.08-.08-.17Z"/><path class="cls-10" d="M69.69,11.65c0,.13-.08.12-.17.07Z"/><path class="cls-10" d="M68.88,12l-.17.07Z"/><path class="cls-10" d="M72.58,10.73l-.13.07Z"/><path class="cls-10" d="M71.85,11l-.13.07Z"/><path class="cls-9" d="M93,11.15l-.15.1Z"/><path class="cls-10" d="M77.89,9.71h0Z"/><path class="cls-10" d="M69.44,11.75l-.13.06Z"/><path class="cls-10" d="M99.79,29.3l-.06-.13Z"/><path class="cls-10" d="M72.8,10.65l-.13.07Z"/><path class="cls-10" d="M77.26,9.79h0Z"/><path class="cls-10" d="M77,9.79l-.13,0Z"/><path class="cls-10" d="M69.14,11.85l-.08.06Z"/><path class="cls-2" d="M91.36,8.43l-.08.06Z"/><path class="cls-9" d="M61.1,44.61l0,.19C61,44.74,61,44.69,61.1,44.61Z"/><path class="cls-2" d="M91.52,8.28l-.08.08Z"/><path class="cls-2" d="M91.44,8.36l-.08.07Z"/><path class="cls-10" d="M99.26,27.25l-.09,0,.06-.06Z"/><path class="cls-10" d="M99.83,29.47l0-.09Z"/><path class="cls-9" d="M94.46,10.49l.07,0Z"/><path class="cls-9" d="M94.58,10.61v0Z"/><path class="cls-10" d="M73.63,10.44h0Z"/><path class="cls-2" d="M93,10v0l0,0v0Z"/><path class="cls-9" d="M63,54v0Z"/><path class="cls-12" d="M97.47,78.33l-2.1.4-10.45,2-8.31,1.64c-.23,0-.29,0-.33-.23-.36-2.09-5.45-30.71-5-32.79a12.67,12.67,0,0,1,1.44-3.72,12,12,0,0,1,3.37-3.73,12.36,12.36,0,0,1,3.26-1.65,12.77,12.77,0,0,1,2.43-.59,10.54,10.54,0,0,1,5.5.59A8.07,8.07,0,0,1,89.84,42a11.91,11.91,0,0,1,2.41,3.12c.31.62.54,1.27.83,1.9.42.91,5.93,28.32,6.34,29.23.2.45.32.93.48,1.39.06.16,0,.22-.17.25l-2.27.43Z"/><path class="cls-13" d="M82.4,33.35a3.3,3.3,0,0,1-.08.68,7,7,0,0,1-.38.82,3.52,3.52,0,0,1-3,.55,2.14,2.14,0,0,1-1-1.2l-.28-1.08a2.12,2.12,0,0,1-1.73-.06,4.67,4.67,0,0,1-.51-.35c-.94-1.16-.35-3.19.59-4.12a.24.24,0,0,0,.07-.32A1.15,1.15,0,0,1,76.34,27a3.5,3.5,0,0,1,1.28-.81,4.73,4.73,0,0,1,2.54-.27,2.18,2.18,0,0,1,.45.13,1.17,1.17,0,0,1,.83,1.08l.21.06a3.5,3.5,0,0,1,2.41,2.16A2,2,0,0,1,84,30.93a1.89,1.89,0,0,1-1.73.94Zm-2.76,1.39h.49a3.3,3.3,0,0,0-.05-.47c-.13-.48-.27-1-.4-1.45l-.2-.71-1,.55a.17.17,0,0,0-.08.13,3.86,3.86,0,0,0,.47,1.53A.84.84,0,0,0,79.64,34.74Zm.6-1.85.11.41.31,1.3.51-.19a.56.56,0,0,0,.35-.43,6.14,6.14,0,0,0-.1-2.13H81.1A2.82,2.82,0,0,0,80,32c0,.15,0,.27.08.39S80.18,32.71,80.24,32.89Zm-2-6.07a2.89,2.89,0,0,0-1.34.72.4.4,0,0,0,0,.67,2.16,2.16,0,0,0,1.11.55,1.91,1.91,0,0,0,1.2-.07,1.84,1.84,0,0,0,1.31-1.25c.14-.4,0-.58-.38-.69l-.18,0A3.72,3.72,0,0,0,78.26,26.82Zm1.79,4.29,2,0,.36,0a1,1,0,0,0,.92-1.43,2.64,2.64,0,0,0-1.92-1.7.22.22,0,0,0-.19.08,2.91,2.91,0,0,1-2.14,1.58h-.22a3.24,3.24,0,0,1-2-.46L76.67,29a3.09,3.09,0,0,0-1,2.31,1.06,1.06,0,0,0,.92,1.14,1.72,1.72,0,0,0,1-.26c.51-.29,1-.57,1.56-.83A6.31,6.31,0,0,1,80.05,31.11Z"/><path class="cls-7" d="M82.4,33.35l-.14-1.48A1.89,1.89,0,0,0,84,30.93a1.16,1.16,0,0,1-.7,1.2,1.18,1.18,0,0,0-.71.93.72.72,0,0,1-.09.23S82.43,33.33,82.4,33.35Z"/><path class="cls-8" d="M75.36,32.71a4.67,4.67,0,0,0,.51.35,2.12,2.12,0,0,0,1.73.06l.28,1.08-.08.09a1.34,1.34,0,0,0-1.08-.53,1.54,1.54,0,0,1-1.06-.63A3.68,3.68,0,0,1,75.36,32.71Z"/><path class="cls-7" d="M78.91,35.4a3.52,3.52,0,0,0,3-.55c0,.08-.06.19-.12.24a2.71,2.71,0,0,1-1.62.61,2.35,2.35,0,0,1-1.14-.14C79,35.53,79,35.46,78.91,35.4Z"/><path class="cls-14" d="M94.5,19.55a1.91,1.91,0,0,1-2.26-1.11A1.64,1.64,0,0,1,92.31,17a2.51,2.51,0,0,1,2-1.44A1.65,1.65,0,0,1,96.13,17a2.22,2.22,0,0,1-.35,1.82A1.9,1.9,0,0,1,94.5,19.55Zm-1-2.22a.56.56,0,1,0-.23-1.09.56.56,0,1,0,.23,1.09Z"/><path class="cls-14" d="M63.09,26.53A3.07,3.07,0,0,1,63,28a1.8,1.8,0,0,1-2.4,1.18,2,2,0,0,1-1.38-2.68A2.48,2.48,0,0,1,61,25a1.59,1.59,0,0,1,1.84.94A5.74,5.74,0,0,1,63.09,26.53Zm-2.15-.14a.57.57,0,0,0-.65-.44.58.58,0,0,0-.46.67.57.57,0,0,0,.66.44A.56.56,0,0,0,60.94,26.4Z"/><path class="cls-15" d="M79.07,29.59A2.91,2.91,0,0,0,81.21,28a.22.22,0,0,1,.19-.08,2.64,2.64,0,0,1,1.92,1.7,1,1,0,0,1-.92,1.43l-.36,0-2,0a.35.35,0,0,0-.12,0l-1.37.21a4.14,4.14,0,0,1-.73.06c-.37,0-.46-.19-.34-.54a1.62,1.62,0,0,1,1.09-1C78.74,29.76,78.9,29.67,79.07,29.59Z"/><path class="cls-16" d="M79.07,29.59c-.17.08-.33.17-.5.23a1.62,1.62,0,0,0-1.09,1c-.12.35,0,.52.34.54a4.14,4.14,0,0,0,.73-.06l1.37-.21a.35.35,0,0,1,.12,0,6.31,6.31,0,0,0-.83.27c-.53.26-1,.54-1.56.83a1.72,1.72,0,0,1-1,.26,1.06,1.06,0,0,1-.92-1.14,3.09,3.09,0,0,1,1-2.31l.18.11a3.24,3.24,0,0,0,2,.46Z"/><path class="cls-17" d="M78.26,26.82A3.72,3.72,0,0,1,80,26.7l.18,0c.41.12.51.29.38.69a1.84,1.84,0,0,1-1.31,1.25l-.2-.1a6.72,6.72,0,0,1-.9-.37c-.55-.32-.44-.84-.06-1.2A2,2,0,0,0,78.26,26.82Zm2.18.74-.1-.07a.92.92,0,0,0-.72-.63c-.07,0-.15.08-.23.12a.94.94,0,0,0,.15.21c.07.06.19.06.25.13s.13.21.22.31a.26.26,0,0,0,.2.08C80.3,27.68,80.37,27.61,80.44,27.55Z"/><path class="cls-18" d="M81.1,31.86h.32a6.14,6.14,0,0,1,.1,2.13.56.56,0,0,1-.35.43l-.51.19-.31-1.3-.11-.41a.75.75,0,0,0,.12-.14,1.49,1.49,0,0,1,.71-.81S81.09,31.88,81.1,31.86Z"/><path class="cls-19" d="M78.26,26.82a2,2,0,0,1-.16.19c-.39.36-.5.88.06,1.2a6.72,6.72,0,0,0,.9.37l.2.1a1.91,1.91,0,0,1-1.2.07,2.16,2.16,0,0,1-1.11-.55.4.4,0,0,1,0-.67A2.89,2.89,0,0,1,78.26,26.82Z"/><path class="cls-20" d="M79.64,34.74a.84.84,0,0,1-.77-.41,3.86,3.86,0,0,1-.47-1.53.17.17,0,0,1,.08-.13l1-.55.2.71c-.32.07-.33.36-.37.59A1.89,1.89,0,0,0,79.64,34.74Z"/><path class="cls-21" d="M79.64,34.74a1.89,1.89,0,0,1-.33-1.33c0-.24,0-.52.37-.59.14.48.28,1,.4,1.45a3.3,3.3,0,0,1,.05.47Z"/><path class="cls-20" d="M81.1,31.86s0,.07,0,.08a1.49,1.49,0,0,0-.71.81.75.75,0,0,1-.12.14c-.06-.17-.13-.35-.18-.52s0-.25-.08-.39A2.82,2.82,0,0,1,81.1,31.86Z"/><path class="cls-22" d="M93.54,17.33a.56.56,0,1,1-.23-1.09.56.56,0,1,1,.23,1.09Z"/><path class="cls-23" d="M60.94,26.4a.56.56,0,0,1-.46.66.57.57,0,0,1-.66-.44.58.58,0,0,1,.46-.67A.57.57,0,0,1,60.94,26.4Z"/><path class="cls-13" d="M80.44,27.55c-.07.05-.14.13-.22.15a.26.26,0,0,1-.2-.08c-.08-.09-.13-.22-.22-.31s-.18-.07-.25-.13A.94.94,0,0,1,79.4,27c.08,0,.15-.12.23-.12a.92.92,0,0,1,.72.63Z"/><path class="cls-24" d="M70.34,10.36l-.2.19,0,0,.2-.19Z"/><path class="cls-24" d="M58.44,70.9h0a.15.15,0,0,1,0,.06h-.08Z"/><path class="cls-24" d="M100.06,22l0,.07L100,22Z"/><path class="cls-21" d="M40.32,133.17a.08.08,0,0,1-.1,0l-.19,0,.08.22,1.09-.09h0A5.92,5.92,0,0,0,40.32,133.17Z"/><path class="cls-25" d="M26.17,152.06a24.67,24.67,0,0,1,0-49.33h.37a20,20,0,0,0,14.23-5.88L131.1,6.51a17,17,0,0,1,12.08-5h22.12a24.67,24.67,0,1,1,0,49.33h-.37a20,20,0,0,0-14.29,5.88L60.35,147a17,17,0,0,1-12.07,5l-21.72,0Z"/><path d="M165.31,3a23.17,23.17,0,1,1,0,46.33h-.45a21.44,21.44,0,0,0-15.27,6.32L59.29,146a15.48,15.48,0,0,1-11,4.57l-21.76,0h-.36a23.17,23.17,0,1,1,0-46.33h.39a21.44,21.44,0,0,0,15.26-6.32L132.16,7.57a15.48,15.48,0,0,1,11-4.56h22.12m0-3H143.19A18.59,18.59,0,0,0,130,5.45L39.7,95.79a18.59,18.59,0,0,1-13.14,5.44h-.39a26.17,26.17,0,1,0,0,52.33h.4l21.72,0a18.59,18.59,0,0,0,13.13-5.45l90.3-90.32a18.59,18.59,0,0,1,13.14-5.45h.45a26.17,26.17,0,1,0,0-52.33Z"/><path class="cls-26" d="M66,64.84a4.2,4.2,0,0,0-4.92,4.92,20.24,20.24,0,0,0,2.24,2.8,1.64,1.64,0,0,0,2.31,0l.43-.43a1.64,1.64,0,0,0,0-2.31,1.64,1.64,0,0,0,2.31,0l.43-.43a1.64,1.64,0,0,0,0-2.31A20.24,20.24,0,0,0,66,64.84Z"/><line class="cls-27" x1="65.32" y1="69.1" x2="66.04" y2="69.82"/><path class="cls-26" d="M102.9,30.7A4.2,4.2,0,0,0,98,35.61a20.24,20.24,0,0,0,2.24,2.8,1.64,1.64,0,0,0,2.31,0L103,38a1.64,1.64,0,0,0,0-2.31,1.64,1.64,0,0,0,2.31,0l.43-.43a1.64,1.64,0,0,0,0-2.31A20.24,20.24,0,0,0,102.9,30.7Z"/><line class="cls-27" x1="102.24" y1="34.95" x2="102.97" y2="35.68"/><path d="M48.06,112a3.56,3.56,0,0,1-.89-.58,2.74,2.74,0,0,1,.1-3.9,2.78,2.78,0,0,1,3.29-.51l14.37,7.34L57.72,100a2.9,2.9,0,0,1,.43-3.52l.3-.3A2.86,2.86,0,0,1,62,95.8L76.26,103,68.93,88.64a2.76,2.76,0,0,1,.48-3.26,2.66,2.66,0,0,1,3.79-.05,3.79,3.79,0,0,1,.61.91l9,18.87a3.05,3.05,0,0,1-.43,3.62l-.4.4a3,3,0,0,1-3.59.41L64.7,102.88l6.65,13.64a3,3,0,0,1-.4,3.59l-.4.4a3.05,3.05,0,0,1-3.62.43Z"/><path d="M85,100.54,77.19,80.43a3.4,3.4,0,0,1,.73-3.82l.23-.23a3.36,3.36,0,0,1,3.79-.71l20.11,7.77a2.7,2.7,0,0,1,1,.58,2.61,2.61,0,0,1,0,3.72,2.81,2.81,0,0,1-3.21.53l-4-1.59-7.79,7.79,1.67,4.15a2.71,2.71,0,0,1-.58,3,2.54,2.54,0,0,1-3.62,0A2.92,2.92,0,0,1,85,100.54Zm6-15.86-8.3-3.39,3.39,8.3Z"/><path d="M91.91,66.77a2.76,2.76,0,0,1,3.9-3.9l12.37,12.37L115.39,68a2.5,2.5,0,1,1,3.54,3.54l-9.16,9.16a2.73,2.73,0,0,1-3.9,0Z"/><path d="M107.69,51a2.76,2.76,0,0,1,3.9-3.9L117.53,53l.05-14.32a3.1,3.1,0,0,1,.88-2.4,2.48,2.48,0,0,1,3.59,0,2.76,2.76,0,0,1,.76,2.18l-.33,9.64,12.27,1.39a2.93,2.93,0,0,1,1.9.83,2.66,2.66,0,0,1-.08,3.87,2.78,2.78,0,0,1-2.58.71l-11.69-1.57-.15,4.3,3.54,3.54a2.76,2.76,0,0,1-3.9,3.9Z"/></g></g></svg>